<svg xmlns="http://www.w3.org/2000/svg" width="8.005" height="10.674"><defs><clipPath id="clip-path"><path id="Rectangle_832" data-name="Rectangle 832" fill="#0083e6" d="M0 0h8.005v10.674H0z"/></clipPath></defs><g id="Group_780" data-name="Group 780" clip-path="url(#clip-path)"><path id="Path_528" data-name="Path 528" d="M33.508 30h.035a.26.26 0 01.194.146 7.7 7.7 0 00.631 1.108c.2.307.276.408.824 1.169a15.3 15.3 0 011.24 1.909 4.418 4.418 0 01.584 2.05 3.508 3.508 0 01-7.016 0 4.418 4.418 0 01.584-2.05 15.3 15.3 0 011.24-1.909c.549-.76.621-.862.824-1.169a7.7 7.7 0 00.631-1.108.252.252 0 01.194-.146zm2 6.1h-.026a.256.256 0 00-.225.249 1.754 1.754 0 01-1.754 1.754.251.251 0 000 .5 2.255 2.255 0 002.255-2.255.251.251 0 00-.251-.251" transform="translate(-29.21 -29.239)" fill="#0083e6"/></g></svg>