<svg xmlns="http://www.w3.org/2000/svg" width="42.308" height="62.328"><defs><clipPath id="clip-path"><path id="Rectangle_999" data-name="Rectangle 999" fill="#48c7ff" d="M0 0h42.308v62.328H0z"/></clipPath></defs><g id="Group_1163" data-name="Group 1163"><g id="Group_1162" data-name="Group 1162" clip-path="url(#clip-path)" fill="#48c7ff"><path id="Path_608" data-name="Path 608" d="M8.755 29.876a1.173 1.173 0 00-1.589.489c-1.9 3.589-2.388 6.92-1.441 9.9a10.987 10.987 0 005.062 6.067 1.175 1.175 0 001.575-.515 1.178 1.178 0 00-.51-1.581 8.717 8.717 0 01-3.895-4.71c-.736-2.349-.3-5.061 1.287-8.059a1.177 1.177 0 00-.489-1.589" transform="translate(.922 5.219)"/><path id="Path_609" data-name="Path 609" d="M37.436 39.144a1.175 1.175 0 00-.923 1.382 11.534 11.534 0 01.243 2.246 17.2 17.2 0 11-34.406 0c0-4.593 3.289-10.1 7.1-16.47 3.618-6.054 7.646-12.795 10.1-20.608 2.229 7.09 5.793 13.382 9.564 19.7a1.176 1.176 0 102.018-1.206C26.726 16.805 22.61 9.468 20.7.919a1.176 1.176 0 00-2.295 0c-2.077 9.295-6.8 17.2-10.97 24.177C3.443 31.769 0 37.531 0 42.773a19.554 19.554 0 1039.108 0 13.757 13.757 0 00-.289-2.7 1.171 1.171 0 00-1.382-.924" transform="translate(0 -.001)"/><path id="Path_610" data-name="Path 610" d="M39.92 25.281L35.031 20.7a1.174 1.174 0 00-1.661.054L22.18 32.7l-4.066-3.905a1.266 1.266 0 00-.838-.328 1.172 1.172 0 00-.824.362l-4.641 4.833a1.174 1.174 0 00.034 1.662l9.82 9.428a1.172 1.172 0 00.813.327h.031a1.176 1.176 0 00.828-.371l16.638-17.764a1.176 1.176 0 00-.054-1.662M22.434 42.23l-8.112-7.789 3.012-3.141 4.078 3.916a1.164 1.164 0 00.845.327 1.176 1.176 0 00.826-.371l11.2-11.953 3.174 2.972z" transform="translate(2.016 3.577)"/></g></g></svg>