<svg id="Component_20_1" data-name="Component 20 – 1" xmlns="http://www.w3.org/2000/svg" width="386" height="310"><g id="Logo_-_Grey_" data-name="Logo - Grey" transform="translate(12 13.486)" fill="rgba(233,236,237,0.5)"><path id="Path_49" data-name="Path 49" d="M73.741 313.571l-35.021.075L80.605 65.183a40.331 40.331 0 0139.534-33.638l35.792-.225-42.512 248.7a40.352 40.352 0 01-39.678 33.551z" transform="translate(-38.72 -31.32)"/><path id="Path_50" data-name="Path 50" d="M253.032 396.627l-34.762.075 10.994-70.202a40.338 40.338 0 0139.6-34.081l35.383-.225-11.485 70.581a40.345 40.345 0 01-39.73 33.852z" transform="translate(-95.886 -114.377)"/><path id="Path_51" data-name="Path 51" d="M289.355 166.89l-35.035.075 16.931-101.7a40.338 40.338 0 0139.534-33.713l35.715-.222-17.47 102.018a40.345 40.345 0 01-39.675 33.542z" transform="translate(-107.363 -31.323)"/><path id="Path_52" data-name="Path 52" d="M432.881 313.571l-35.021.075 41.879-248.463a40.345 40.345 0 0139.534-33.638l35.792-.225-42.506 248.7a40.352 40.352 0 01-39.678 33.551z" transform="translate(-153.064 -31.32)"/></g><path id="Rectangle_54" data-name="Rectangle 54" fill="none" d="M0 0h386v310H0z"/></svg>